<?xml version="1.0" encoding="UTF-8" standalone="no"?>
<!-- Created with Inkscape (http://www.inkscape.org/) -->

<svg
   width="92.212616mm"
   height="103.61084mm"
   viewBox="0 0 92.212616 103.61084"
   version="1.1"
   id="svg1"
   xml:space="preserve"
   inkscape:version="1.4.1 (93de688d07, 2025-03-30)"
   sodipodi:docname="disegno.svg"
   inkscape:export-filename="f1-graphql-logo.svg"
   inkscape:export-xdpi="96"
   inkscape:export-ydpi="96"
   xmlns:inkscape="http://www.inkscape.org/namespaces/inkscape"
   xmlns:sodipodi="http://sodipodi.sourceforge.net/DTD/sodipodi-0.dtd"
   xmlns="http://www.w3.org/2000/svg"
   xmlns:svg="http://www.w3.org/2000/svg"><sodipodi:namedview
     id="namedview1"
     pagecolor="#ffffff"
     bordercolor="#000000"
     borderopacity="0.25"
     inkscape:showpageshadow="2"
     inkscape:pageopacity="0.0"
     inkscape:pagecheckerboard="0"
     inkscape:deskcolor="#d1d1d1"
     inkscape:document-units="mm"
     inkscape:zoom="4"
     inkscape:cx="480.75"
     inkscape:cy="551.625"
     inkscape:window-width="3440"
     inkscape:window-height="1412"
     inkscape:window-x="0"
     inkscape:window-y="0"
     inkscape:window-maximized="1"
     inkscape:current-layer="svg1"><inkscape:page
       x="0"
       y="-1.3660029e-13"
       width="92.212616"
       height="103.61083"
       id="page2"
       margin="0"
       bleed="0" /></sodipodi:namedview><defs
     id="defs1"><linearGradient
       id="swatch5"
       inkscape:swatch="solid"><stop
         style="stop-color:#000000;stop-opacity:1;"
         offset="0"
         id="stop5" /></linearGradient></defs><path
     class="st0"
     d="m 69.29745,60.272078 h 0.35372 v -1.63313 h 0.006 l 0.58702,1.63313 h 0.3048 l 0.58702,-1.63313 h 0.006 v 1.63313 h 0.35372 v -2.11667 H 70.9802 l -0.5682,1.6557 h -0.006 l -0.58326,-1.6557 h -0.52117 v 2.11667 z m -1.95297,-1.79682 h 0.66981 v 1.79682 h 0.37065 v -1.79682 h 0.67356 v -0.31985 h -1.71214 v 0.31985 z m -4.30484,1.79682 16.93334,-16.93334 H 69.78099 l -16.93145,16.93334 z m -2.42899,-9.55981 H 40.113792 c -6.246518,0 -7.339659,0.33114 -10.017007,3.00661 -2.50237,2.50425 -6.568252,6.5532 -6.568252,6.5532 h 8.878712 l 2.118547,-2.11855 c 1.392297,-1.39229 2.111023,-1.53717 5.034845,-1.53717 H 54.70657 Z m -30.786679,1.80058 c -1.847616,1.74413 -5.870223,5.65009 -8.037689,7.75923 h -9.546638 c 0,0 7.648223,-7.62753 11.900371,-11.81194 4.380089,-4.16937 6.564489,-5.11951 14.598415,-5.11951 h 29.24575 l -6.33307,6.33306 H 39.334859 c -5.646326,-0.002 -6.914444,0.38947 -9.510888,2.83916 z"
     id="path1"
     style="stroke-width:0.188148"
     sodipodi:nodetypes="ccccccccccccccccccccccccccccccccccscccssccccccscccc" /><g
     inkscape:label="Livello 1"
     inkscape:groupmode="layer"
     id="layer1"
     transform="translate(-58.89369,-96.694592)"><g
       id="g23"
       transform="matrix(0.26458333,0,0,0.26458333,52.083334,95.583334)"
       style="fill:#e000ff;fill-opacity:1">
	<g
   id="g2"
   style="fill:#e000ff;fill-opacity:1">
		<g
   id="g1"
   style="fill:#e000ff;fill-opacity:1">
			
				<path
   id="rect1"
   d="m 138.60042,319.89954 -6.7e-4,-217.65352 c -3.1721,11.66605 -6.06335,22.25243 -7.58917,27.76962 l -0.004,0.0204 -0.0135,0.0236 c -2.66793,9.05829 -5.19118,15.74791 -8.99292,21.51411 l -10e-4,168.32586 z m -0.001,-251.751805 1.4e-4,-68.54664629 -16.59988,-9.7661e-4 -4.5e-4,78.1320289 z"
   transform="matrix(-0.866,-0.5,0.5,-0.866,163.3196,363.3136)"
   style="fill:#e000ff;fill-opacity:1" />
		</g>
	</g>
	<g
   id="g4"
   style="fill:#e000ff;fill-opacity:1">
		<g
   id="g3"
   style="fill:#e000ff;fill-opacity:1">
			<rect
   x="39.799999"
   y="272.20001"
   fill="#e535ab"
   width="320.29999"
   height="16.6"
   id="rect2"
   style="fill:#e000ff;fill-opacity:1" />
		</g>
	</g>
	<g
   id="g6"
   style="fill:#e000ff;fill-opacity:1">
		<g
   id="g5"
   style="fill:#e000ff;fill-opacity:1">
			
				<rect
   x="37.900002"
   y="312.20001"
   transform="matrix(-0.866,-0.5,0.5,-0.866,83.0693,663.3409)"
   fill="#e535ab"
   width="185"
   height="16.6"
   id="rect4"
   style="fill:#e000ff;fill-opacity:1" />
		</g>
	</g>
	<g
   id="g8"
   style="fill:#e000ff;fill-opacity:1">
		<g
   id="g7"
   style="fill:#e000ff;fill-opacity:1">
			
				<rect
   x="177.10001"
   y="71.099998"
   transform="matrix(-0.866,-0.5,0.5,-0.866,463.3409,283.0693)"
   fill="#e535ab"
   width="185"
   height="16.6"
   id="rect6"
   style="fill:#e000ff;fill-opacity:1" />
		</g>
	</g>
	<g
   id="g10"
   style="fill:#e000ff;fill-opacity:1">
		<g
   id="g9"
   style="fill:#e000ff;fill-opacity:1">
			
				<rect
   x="122.1"
   y="-13"
   transform="matrix(-0.5,-0.866,0.866,-0.5,126.7903,232.1221)"
   fill="#e535ab"
   width="16.6"
   height="185"
   id="rect8"
   style="fill:#e000ff;fill-opacity:1" />
		</g>
	</g>
	<g
   id="g12"
   style="fill:#e000ff;fill-opacity:1">
		<g
   id="g11"
   style="fill:#e000ff;fill-opacity:1">
			
				<path
   id="rect10"
   d="m 429.90067,168.20055 -9.7e-4,-16.59987 -161.34624,-0.001 -9.58539,16.60188 z m -209.71068,1.5e-4 -4.44626,-16.59986 -106.14248,-0.001 -0.002,16.60059 z"
   transform="matrix(-0.5,-0.866,0.866,-0.5,266.0828,473.3766)"
   style="fill:#e000ff;fill-opacity:1" />
		</g>
	</g>
	<g
   id="g14"
   style="fill:#e000ff;fill-opacity:1">
		<g
   id="g13"
   style="fill:#e000ff;fill-opacity:1">
			<rect
   x="52.5"
   y="107.5"
   fill="#e535ab"
   width="16.6"
   height="185"
   id="rect12"
   style="fill:#e000ff;fill-opacity:1" />
		</g>
	</g>
	<g
   id="g16"
   style="fill:#e000ff;fill-opacity:1">
		<g
   id="g15"
   style="fill:#e000ff;fill-opacity:1">
			<rect
   x="330.89999"
   y="107.5"
   fill="#e535ab"
   width="16.6"
   height="185"
   id="rect14"
   style="fill:#e000ff;fill-opacity:1" />
		</g>
	</g>
	<g
   id="g18"
   style="fill:#e000ff;fill-opacity:1">
		<g
   id="g17"
   style="fill:#e000ff;fill-opacity:1">
			
				<rect
   x="262.39999"
   y="240.10001"
   transform="matrix(-0.5,-0.866,0.866,-0.5,126.7953,714.2875)"
   fill="#e535ab"
   width="14.5"
   height="160.89999"
   id="rect16"
   style="fill:#e000ff;fill-opacity:1" />
		</g>
	</g>
	<path
   fill="#e535ab"
   d="m 369.5,297.9 c -9.6,16.7 -31,22.4 -47.7,12.8 -16.7,-9.6 -22.4,-31 -12.8,-47.7 9.6,-16.7 31,-22.4 47.7,-12.8 16.8,9.7 22.5,31 12.8,47.7"
   id="path18"
   style="fill:#e000ff;fill-opacity:1" />
	<path
   fill="#e535ab"
   d="m 90.9,137 c -9.6,16.7 -31,22.4 -47.7,12.8 -16.7,-9.6 -22.4,-31 -12.8,-47.7 9.6,-16.7 31,-22.4 47.7,-12.8 16.7,9.7 22.4,31 12.8,47.7"
   id="path19"
   style="fill:#e000ff;fill-opacity:1" />
	<path
   fill="#e535ab"
   d="m 30.5,297.9 c -9.6,-16.7 -3.9,-38 12.8,-47.7 16.7,-9.6 38,-3.9 47.7,12.8 9.6,16.7 3.9,38 -12.8,47.7 -16.8,9.6 -38.1,3.9 -47.7,-12.8"
   id="path20"
   style="fill:#e000ff;fill-opacity:1" />
	<path
   fill="#e535ab"
   d="m 309.1,137 c -9.6,-16.7 -3.9,-38 12.8,-47.7 16.7,-9.6 38,-3.9 47.7,12.8 9.6,16.7 3.9,38 -12.8,47.7 -16.7,9.6 -38.1,3.9 -47.7,-12.8"
   id="path21"
   style="fill:#e000ff;fill-opacity:1" />
	<path
   fill="#e535ab"
   d="m 200,395.8 c -19.3,0 -34.9,-15.6 -34.9,-34.9 0,-19.3 15.6,-34.9 34.9,-34.9 19.3,0 34.9,15.6 34.9,34.9 0,19.2 -15.6,34.9 -34.9,34.9"
   id="path22"
   style="fill:#e000ff;fill-opacity:1" />
	<path
   fill="#e535ab"
   d="m 200,74 c -19.3,0 -34.9,-15.6 -34.9,-34.9 0,-19.3 15.6,-34.9 34.9,-34.9 19.3,0 34.9,15.6 34.9,34.9 0,19.3 -15.6,34.9 -34.9,34.9"
   id="path23"
   style="fill:#e000ff;fill-opacity:1" />
</g></g><style
     type="text/css"
     id="style1">
	.st0{fill-rule:evenodd;clip-rule:evenodd;fill:#E10600;}
</style></svg>
