<?xml version="1.0" encoding="UTF-8" standalone="no"?>
<svg
   width="52"
   height="53.049999"
   viewBox="0 0 52 53.049999"
   fill="#89b9c3"
   class="mt-8"
   version="1.1"
   id="svg2"
   sodipodi:docname="graphql-yoga-logo.svg"
   xmlns:inkscape="http://www.inkscape.org/namespaces/inkscape"
   xmlns:sodipodi="http://sodipodi.sourceforge.net/DTD/sodipodi-0.dtd"
   xmlns="http://www.w3.org/2000/svg"
   xmlns:svg="http://www.w3.org/2000/svg">
  <defs
     id="defs2" />
  <sodipodi:namedview
     id="namedview2"
     pagecolor="#ffffff"
     bordercolor="#000000"
     borderopacity="0.25"
     inkscape:showpageshadow="2"
     inkscape:pageopacity="0.0"
     inkscape:pagecheckerboard="0"
     inkscape:deskcolor="#d1d1d1">
    <inkscape:page
       x="0"
       y="0"
       width="52"
       height="53.049999"
       id="page2"
       margin="0"
       bleed="0" />
  </sodipodi:namedview>
  <path
     d="M 34.713,10.37 H 26.482 L 31.425,5.427 26,0 20.573,5.427 25.516,10.37 h -8.231 a 4,4 0 0 0 -2.827,1.172 L 0,26 5.427,31.427 23.174,13.681 a 3.997,3.997 0 0 1 5.652,0 L 46.573,31.427 52,26 37.54,11.54 A 4,4 0 0 0 34.713,10.368 Z M 26,42.197 20.574,47.623 26,53.05 31.426,47.624 Z"
     id="path1" />
  <path
     d="M 26,31.427 H 17.287 A 4,4 0 0 0 14.46,32.6 l -4.17,4.17 5.427,5.427 7.46,-7.46 a 3.997,3.997 0 0 1 5.653,0 l 7.46,7.46 5.427,-5.427 -4.172,-4.171 a 4,4 0 0 0 -2.827,-1.172 z"
     id="path2" />
</svg>
